<svg width="20" height="20" viewBox="0 0 20 20" fill="none" xmlns="http://www.w3.org/2000/svg">
<path d="M20 10C20 4.47714 15.5229 0 10 0C4.47714 0 0 4.47714 0 10C0 15.5229 4.47714 20 10 20C15.5229 20 20 15.5229 20 10ZM17.0784 15.0753C15.4977 17.276 12.9164 18.7097 10 18.7097C7.08359 18.7097 4.5023 17.276 2.92157 15.0753C3.04823 13.987 3.83557 13.0734 4.91907 12.8025L6.22448 12.4762C7.27561 13.3786 8.59992 13.871 10 13.871C11.4001 13.871 12.7244 13.3786 13.7756 12.4762L15.081 12.8025C16.1644 13.0734 16.9518 13.987 17.0784 15.0753ZM14.5161 8.06452C14.5161 10.5587 12.4942 12.5806 10 12.5806C7.50581 12.5806 5.48387 10.5587 5.48387 8.06452C5.48387 5.57032 7.50581 3.54839 10 3.54839C12.4942 3.54839 14.5161 5.57032 14.5161 8.06452Z" fill="#828282"/>
</svg>
