<svg width="22" height="14" viewBox="0 0 22 14" fill="none" xmlns="http://www.w3.org/2000/svg">
<path d="M21.7461 6.07292C19.5926 2.43284 15.5761 0 11 0C6.42202 0 2.40642 2.43455 0.253858 6.07292C0.0876547 6.35383 0 6.67395 0 7.00002C0 7.32608 0.0876547 7.6462 0.253858 7.92712C2.40745 11.5672 6.42393 14 11 14C15.578 14 19.5936 11.5654 21.7461 7.92708C21.9123 7.64617 22 7.32606 22 7C22 6.67394 21.9123 6.35383 21.7461 6.07292ZM11 12.1739C8.12923 12.1739 5.80556 9.85984 5.80556 7C5.80556 4.14058 8.12878 1.82609 11 1.82609C13.8708 1.82609 16.1944 4.14012 16.1944 7C16.1944 9.85942 13.8712 12.1739 11 12.1739ZM14.9722 7C14.9722 9.18514 13.1938 10.9565 11 10.9565C8.80619 10.9565 7.02778 9.18514 7.02778 7C7.02778 6.32633 7.19702 5.6921 7.49513 5.1369L7.49509 5.13811C7.49509 6.03788 8.22739 6.76725 9.13073 6.76725C10.0341 6.76725 10.7664 6.03784 10.7664 5.13811C10.7664 4.23835 10.0341 3.50894 9.13073 3.50894L9.12951 3.50898C9.68691 3.21205 10.3237 3.04348 11 3.04348C13.1938 3.04348 14.9722 4.81486 14.9722 7Z" fill="#393939"/>
</svg>
