<svg width="20" height="20" viewBox="0 0 20 20" fill="none" xmlns="http://www.w3.org/2000/svg">
<path d="M20 6.87504C20 10.672 16.922 13.75 13.125 13.75C12.6867 13.75 12.2582 13.7085 11.8427 13.6301L10.9047 14.6854C10.8168 14.7843 10.7089 14.8635 10.5881 14.9177C10.4673 14.972 10.3364 15 10.204 15H8.75V16.5625C8.75 17.0803 8.33027 17.5 7.8125 17.5H6.25V19.0625C6.25 19.5803 5.83027 20 5.3125 20H0.9375C0.419727 20 0 19.5803 0 19.0625V16.0133C0 15.7647 0.0987891 15.5262 0.27457 15.3504L6.59496 9.03C6.37141 8.35211 6.25 7.62777 6.25 6.875C6.25 3.07805 9.32801 3.90629e-05 13.125 3.73147e-10C16.9331 -3.90621e-05 20 3.06684 20 6.87504ZM13.125 5C13.125 6.03555 13.9645 6.875 15 6.875C16.0355 6.875 16.875 6.03555 16.875 5C16.875 3.96445 16.0355 3.125 15 3.125C13.9645 3.125 13.125 3.96445 13.125 5Z" fill="#393939"/>
</svg>
