<svg width="218" height="302" viewBox="0 0 218 302" fill="none" xmlns="http://www.w3.org/2000/svg">
<path d="M0.0352893 27.8227L16.6216 239.894C16.8815 243.217 17.9468 246.43 19.7283 249.265C21.5097 252.1 23.9554 254.474 26.861 256.189L99.4021 298.997C102.241 300.672 105.49 301.557 108.801 301.557C112.112 301.557 115.36 300.672 118.2 298.997L190.741 256.189C193.646 254.474 196.092 252.1 197.874 249.265C199.655 246.43 200.72 243.217 200.98 239.894L217.566 27.8227C217.796 24.8878 216.9 21.9748 215.054 19.6574C213.209 17.34 210.548 15.7861 207.596 15.3022L119.612 0.880042C112.454 -0.293347 105.148 -0.293347 97.9894 0.880042L10.0061 15.3022C7.05388 15.7861 4.393 17.34 2.54751 19.6574C0.702012 21.9748 -0.194248 24.8878 0.0352893 27.8227Z" fill="black"/>
<path d="M95.0935 106.047C88.1762 108.634 82.8177 112.659 79.018 118.121C75.2184 123.487 73.3185 130.098 73.3185 137.956C73.3185 141.501 73.6595 143.993 74.3415 145.43C75.0234 146.771 75.3644 147.538 75.3644 147.73C70.1034 147.73 66.1576 146.676 63.527 144.567C60.9939 142.364 59.7273 138.77 59.7273 133.788C59.7273 127.655 62.2604 121.714 67.3266 115.965C72.4903 110.119 79.0667 105.424 87.0557 101.879C95.0448 98.2373 103.034 96.4167 111.023 96.4167C112.387 96.4167 114.335 96.5126 116.868 96.7046L118.184 185.101L148.873 97.1358H159.103L118.476 204.217H97.4317L95.0935 106.047Z" fill="white"/>
</svg>
