<svg viewBox="0 0 206 94" fill="none" xmlns="http://www.w3.org/2000/svg">
<path d="M0.0109977 8.67278L5.18002 74.7787C5.26101 75.8145 5.593 76.8162 6.14817 77.6998C6.70333 78.5835 7.46553 79.3236 8.37103 79.858L30.978 93.2019C31.8627 93.7241 32.8752 94 33.907 94C34.9388 94 35.9512 93.7241 36.836 93.2019L59.443 79.858C60.3485 79.3236 61.1107 78.5835 61.6659 77.6998C62.221 76.8162 62.553 75.8145 62.634 74.7787L67.803 8.67278C67.8745 7.75791 67.5952 6.84988 67.0201 6.12751C66.4449 5.40514 65.6157 4.92077 64.6957 4.76992L37.2763 0.274323C35.0455 -0.0914408 32.7685 -0.0914408 30.5377 0.274323L3.11833 4.76992C2.19829 4.92077 1.36905 5.40514 0.793912 6.12751C0.218777 6.84988 -0.0605359 7.75791 0.0109977 8.67278Z" fill="url(#paint0_linear)"/>
<path d="M29.6352 33.0564C27.4795 33.8629 25.8095 35.1174 24.6254 36.82C23.4413 38.4927 22.8492 40.5536 22.8492 43.0029C22.8492 44.108 22.9555 44.8847 23.168 45.3327C23.3805 45.7509 23.4868 45.9899 23.4868 46.0496C21.8472 46.0496 20.6175 45.721 19.7977 45.0639C19.0083 44.3769 18.6136 43.2568 18.6136 41.7036C18.6136 39.792 19.403 37.9401 20.9819 36.1479C22.5911 34.3259 24.6406 32.8623 27.1303 31.7571C29.62 30.6221 32.1097 30.0546 34.5995 30.0546C35.0245 30.0546 35.6318 30.0845 36.4212 30.1443L36.8311 57.6988L46.3953 30.2787H49.5834L36.9222 63.6577H30.3639L29.6352 33.0564Z" fill="white"/>
<path d="M116.12 30.8008L102.913 59.907L89.7068 30.8008H87.0934L101.653 62.937H104.034L118.594 30.8008H116.12Z" fill="black"/>
<path d="M124.007 33.1423C125.08 33.1423 125.92 32.316 125.92 31.26C125.92 30.25 125.08 29.4235 124.007 29.4235C122.933 29.4235 122.093 30.2963 122.093 31.3058C122.093 32.3158 122.933 33.1423 124.007 33.1423ZM122.84 62.9369H125.173V38.9727H122.84V62.9369Z" fill="black"/>
<path d="M146.127 59.8152C145.147 60.6879 143.793 61.1465 142.347 61.1465C139.36 61.1465 137.82 59.4479 137.82 56.372V40.9466H145.567V38.9727H137.82V33.739H135.487V38.9727H131.007V40.9466H135.487V56.6015C135.487 60.6415 137.82 63.1206 142.113 63.1206C143.933 63.1206 145.893 62.5701 147.107 61.422L146.127 59.8152Z" fill="black"/>
<path d="M161.807 38.7891C158.027 38.7891 154.48 40.0744 152.053 42.1863L153.22 43.8389C155.227 42.0485 158.26 40.809 161.62 40.809C166.38 40.809 168.853 43.1962 168.853 47.6494V49.5775H160.5C153.733 49.5775 151.4 52.6533 151.4 56.2801C151.4 60.366 154.713 63.1206 160.173 63.1206C164.42 63.1206 167.407 61.422 168.947 58.6674V62.937H171.187V47.7412C171.187 41.819 167.827 38.7891 161.807 38.7891ZM160.5 61.2384C156.207 61.2384 153.733 59.3102 153.733 56.1884C153.733 53.4338 155.507 51.368 160.547 51.368H168.853V55.867C167.453 59.3102 164.607 61.2384 160.5 61.2384Z" fill="black"/>
<path d="M201.427 50.8631C201.427 43.7472 196.48 38.7891 189.807 38.7891C183.133 38.7891 178.14 43.8389 178.14 50.9548C178.14 58.0707 183.32 63.1206 190.693 63.1206C194.38 63.1206 197.74 61.7892 199.887 59.2183L198.533 57.7033C196.667 59.9528 193.82 61.0547 190.74 61.0547C184.907 61.0547 180.66 57.1984 180.427 51.5057H201.38C201.38 51.2763 201.426 51.0461 201.426 50.8632L201.427 50.8631ZM189.807 40.809C194.987 40.809 198.813 44.5276 199.14 49.7153H180.473C180.847 44.4817 184.627 40.809 189.807 40.809Z" fill="black"/>
<defs>
<linearGradient id="paint0_linear" x1="64.4052" y1="102.131" x2="1.21854" y2="4.37261" gradientUnits="userSpaceOnUse">
<stop stop-color="#D11BF7"/>
<stop offset="1" stop-color="#6B3EF4"/>
</linearGradient>
</defs>
</svg>
